<?xml version="1.0" encoding="utf-8"?>
<svg xmlns="http://www.w3.org/2000/svg" xmlns:xlink="http://www.w3.org/1999/xlink" width="600" height="400" viewBox="0 0 2400 1600">
<defs>
  <clipPath id="clip860">
    <rect x="0" y="0" width="2400" height="1600"/>
  </clipPath>
</defs>
<path clip-path="url(#clip860)" d="
M0 1600 L2400 1600 L2400 0 L0 0  Z
  " fill="#ffffff" fill-rule="evenodd" fill-opacity="1"/>
<defs>
  <clipPath id="clip861">
    <rect x="480" y="0" width="1681" height="1600"/>
  </clipPath>
</defs>
<path clip-path="url(#clip860)" d="
M447.244 1552.76 L1952.76 1552.76 L1952.76 47.2441 L447.244 47.2441  Z
  " fill="#ffffff" fill-rule="evenodd" fill-opacity="1"/>
<defs>
  <clipPath id="clip862">
    <rect x="447" y="47" width="1507" height="1507"/>
  </clipPath>
</defs>
<polyline clip-path="url(#clip862)" style="stroke:#000000; stroke-linecap:butt; stroke-linejoin:round; stroke-width:4; stroke-opacity:1; fill:none" points="
  920.014,262.317 919.959,271.965 919.798,281.813 919.54,291.849 919.193,302.056 918.763,312.42 918.259,322.925 917.69,333.558 917.061,344.302 916.382,355.143 
  915.66,366.067 914.903,377.057 914.119,388.1 913.315,399.181 912.5,410.283 911.68,421.393 910.865,432.496 910.061,443.576 909.277,454.619 908.52,465.61 
  907.798,476.533 907.119,487.375 906.491,498.119 905.921,508.751 905.417,519.257 904.988,529.621 904.64,539.828 904.382,549.863 904.221,559.712 904.166,569.359 
  
  "/>
<polyline clip-path="url(#clip862)" style="stroke:#000000; stroke-linecap:butt; stroke-linejoin:round; stroke-width:4; stroke-opacity:1; fill:none" points="
  904.166,569.359 905.414,577.193 909.041,584.506 914.87,591.338 922.725,597.726 932.43,603.709 943.809,609.325 956.685,614.614 970.883,619.614 986.226,624.363 
  1002.54,628.9 1019.64,633.264 1037.36,637.492 1055.53,641.624 1073.95,645.699 1092.47,649.754 1110.89,653.828 1129.06,657.96 1146.78,662.189 1163.88,666.553 
  1180.19,671.09 1195.54,675.839 1209.74,680.838 1222.61,686.127 1233.99,691.744 1243.7,697.727 1251.55,704.115 1257.38,710.946 1261.01,718.259 1262.25,726.093 
  
  "/>
<polyline clip-path="url(#clip862)" style="stroke:#000000; stroke-linecap:butt; stroke-linejoin:round; stroke-width:4; stroke-opacity:1; fill:none" points="
  1262.25,726.093 1262.1,738.024 1261.66,750.19 1260.95,762.575 1260,775.161 1258.82,787.931 1257.44,800.867 1255.87,813.952 1254.15,827.167 1252.28,840.497 
  1250.3,853.923 1248.22,867.427 1246.07,880.992 1243.86,894.602 1241.62,908.237 1239.37,921.882 1237.13,935.517 1234.93,949.126 1232.77,962.692 1230.7,976.196 
  1228.71,989.622 1226.85,1002.95 1225.12,1016.17 1223.56,1029.25 1222.18,1042.19 1221,1054.96 1220.04,1067.54 1219.33,1079.93 1218.89,1092.1 1218.74,1104.03 
  
  "/>
<polyline clip-path="url(#clip862)" style="stroke:#000000; stroke-linecap:butt; stroke-linejoin:round; stroke-width:4; stroke-opacity:1; fill:none" points="
  1218.74,1104.03 1219.48,1113.65 1221.64,1122.95 1225.1,1131.92 1229.76,1140.62 1235.53,1149.05 1242.28,1157.24 1249.93,1165.23 1258.36,1173.02 1267.47,1180.65 
  1277.16,1188.15 1287.31,1195.53 1297.84,1202.83 1308.62,1210.07 1319.56,1217.26 1330.56,1224.45 1341.5,1231.64 1352.29,1238.88 1362.81,1246.17 1372.97,1253.56 
  1382.65,1261.05 1391.76,1268.69 1400.19,1276.48 1407.84,1284.47 1414.6,1292.66 1420.36,1301.09 1425.03,1309.78 1428.49,1318.76 1430.64,1328.05 1431.38,1337.68 
  
  "/>
<polyline clip-path="url(#clip862)" style="stroke:#000000; stroke-linecap:butt; stroke-linejoin:round; stroke-width:4; stroke-opacity:1; fill:none" points="
  1218.74,1104.03 1217.84,1114.15 1215.22,1123.69 1211,1132.69 1205.33,1141.19 1198.31,1149.24 1190.08,1156.87 1180.78,1164.14 1170.51,1171.08 1159.42,1177.74 
  1147.63,1184.16 1135.26,1190.39 1122.45,1196.46 1109.32,1202.43 1096,1208.33 1082.62,1214.21 1069.3,1220.11 1056.17,1226.07 1043.36,1232.15 1030.99,1238.37 
  1019.2,1244.79 1008.11,1251.45 997.844,1258.39 988.535,1265.66 980.31,1273.29 973.294,1281.34 967.615,1289.84 963.402,1298.84 960.78,1308.38 959.878,1318.51 
  
  "/>
<polyline clip-path="url(#clip862)" style="stroke:#000000; stroke-linecap:butt; stroke-linejoin:round; stroke-width:4; stroke-opacity:1; fill:none" points="
  1218.74,1104.03 1220.55,1115.25 1225.81,1125.73 1234.25,1135.52 1245.64,1144.67 1259.7,1153.24 1276.19,1161.29 1294.85,1168.87 1315.43,1176.03 1337.66,1182.84 
  1361.3,1189.34 1386.09,1195.59 1411.77,1201.65 1438.09,1207.57 1464.8,1213.41 1491.63,1219.22 1518.33,1225.06 1544.65,1230.98 1570.33,1237.03 1595.12,1243.29 
  1618.76,1249.79 1641,1256.59 1661.57,1263.76 1680.23,1271.33 1696.72,1279.38 1710.79,1287.96 1722.17,1297.11 1730.62,1306.9 1735.87,1317.37 1737.68,1328.6 
  
  "/>
<polyline clip-path="url(#clip862)" style="stroke:#000000; stroke-linecap:butt; stroke-linejoin:round; stroke-width:4; stroke-opacity:1; fill:none" points="
  1218.74,1104.03 1216.8,1113.82 1211.17,1122.97 1202.11,1131.51 1189.9,1139.5 1174.82,1146.99 1157.14,1154.01 1137.13,1160.63 1115.07,1166.88 1091.23,1172.82 
  1065.88,1178.5 1039.31,1183.95 1011.77,1189.24 983.546,1194.41 954.914,1199.51 926.145,1204.58 897.513,1209.67 869.291,1214.84 841.754,1220.13 815.175,1225.59 
  789.828,1231.26 765.987,1237.2 743.925,1243.46 723.917,1250.07 706.235,1257.1 691.155,1264.58 678.949,1272.57 669.892,1281.11 664.256,1290.26 662.317,1300.06 
  
  "/>
<path clip-path="url(#clip862)" d="
M947.983 262.317 L933.998 238.095 L906.029 238.095 L892.045 262.317 L906.029 286.539 L933.998 286.539 L947.983 262.317 L947.983 262.317  Z
  " fill="#009af9" fill-rule="evenodd" fill-opacity="1"/>
<polyline clip-path="url(#clip862)" style="stroke:#000000; stroke-linecap:butt; stroke-linejoin:round; stroke-width:4; stroke-opacity:1; fill:none" points="
  947.983,262.317 933.998,238.095 906.029,238.095 892.045,262.317 906.029,286.539 933.998,286.539 947.983,262.317 
  "/>
<path clip-path="url(#clip862)" d="
M952.863 569.359 L928.515 527.187 L879.818 527.187 L855.469 569.359 L879.818 611.532 L928.515 611.532 L952.863 569.359 L952.863 569.359  Z
  " fill="#009af9" fill-rule="evenodd" fill-opacity="1"/>
<polyline clip-path="url(#clip862)" style="stroke:#000000; stroke-linecap:butt; stroke-linejoin:round; stroke-width:4; stroke-opacity:1; fill:none" points="
  952.863,569.359 928.515,527.187 879.818,527.187 855.469,569.359 879.818,611.532 928.515,611.532 952.863,569.359 
  "/>
<path clip-path="url(#clip862)" d="
M1297.46 726.093 L1279.86 695.603 L1244.65 695.603 L1227.05 726.093 L1244.65 756.583 L1279.86 756.583 L1297.46 726.093 L1297.46 726.093  Z
  " fill="#009af9" fill-rule="evenodd" fill-opacity="1"/>
<polyline clip-path="url(#clip862)" style="stroke:#000000; stroke-linecap:butt; stroke-linejoin:round; stroke-width:4; stroke-opacity:1; fill:none" points="
  1297.46,726.093 1279.86,695.603 1244.65,695.603 1227.05,726.093 1244.65,756.583 1279.86,756.583 1297.46,726.093 
  "/>
<path clip-path="url(#clip862)" d="
M1309.13 1104.03 L1263.94 1025.74 L1173.55 1025.74 L1128.35 1104.03 L1173.55 1182.31 L1263.94 1182.31 L1309.13 1104.03 L1309.13 1104.03  Z
  " fill="#009af9" fill-rule="evenodd" fill-opacity="1"/>
<polyline clip-path="url(#clip862)" style="stroke:#000000; stroke-linecap:butt; stroke-linejoin:round; stroke-width:4; stroke-opacity:1; fill:none" points="
  1309.13,1104.03 1263.94,1025.74 1173.55,1025.74 1128.35,1104.03 1173.55,1182.31 1263.94,1182.31 1309.13,1104.03 
  "/>
<path clip-path="url(#clip862)" d="
M1492.68 1337.68 L1462.03 1284.6 L1400.73 1284.6 L1370.08 1337.68 L1400.73 1390.77 L1462.03 1390.77 L1492.68 1337.68 L1492.68 1337.68  Z
  " fill="#009af9" fill-rule="evenodd" fill-opacity="1"/>
<polyline clip-path="url(#clip862)" style="stroke:#000000; stroke-linecap:butt; stroke-linejoin:round; stroke-width:4; stroke-opacity:1; fill:none" points="
  1492.68,1337.68 1462.03,1284.6 1400.73,1284.6 1370.08,1337.68 1400.73,1390.77 1462.03,1390.77 1492.68,1337.68 
  "/>
<path clip-path="url(#clip862)" d="
M1014.97 1318.51 L987.422 1270.8 L932.334 1270.8 L904.79 1318.51 L932.334 1366.21 L987.422 1366.21 L1014.97 1318.51 L1014.97 1318.51  Z
  " fill="#009af9" fill-rule="evenodd" fill-opacity="1"/>
<polyline clip-path="url(#clip862)" style="stroke:#000000; stroke-linecap:butt; stroke-linejoin:round; stroke-width:4; stroke-opacity:1; fill:none" points="
  1014.97,1318.51 987.422,1270.8 932.334,1270.8 904.79,1318.51 932.334,1366.21 987.422,1366.21 1014.97,1318.51 
  "/>
<path clip-path="url(#clip862)" d="
M1792.77 1328.6 L1765.23 1280.89 L1710.14 1280.89 L1682.59 1328.6 L1710.14 1376.31 L1765.23 1376.31 L1792.77 1328.6 L1792.77 1328.6  Z
  " fill="#009af9" fill-rule="evenodd" fill-opacity="1"/>
<polyline clip-path="url(#clip862)" style="stroke:#000000; stroke-linecap:butt; stroke-linejoin:round; stroke-width:4; stroke-opacity:1; fill:none" points="
  1792.77,1328.6 1765.23,1280.89 1710.14,1280.89 1682.59,1328.6 1710.14,1376.31 1765.23,1376.31 1792.77,1328.6 
  "/>
<path clip-path="url(#clip862)" d="
M717.405 1300.06 L689.861 1252.35 L634.773 1252.35 L607.229 1300.06 L634.773 1347.77 L689.861 1347.77 L717.405 1300.06 L717.405 1300.06  Z
  " fill="#009af9" fill-rule="evenodd" fill-opacity="1"/>
<polyline clip-path="url(#clip862)" style="stroke:#000000; stroke-linecap:butt; stroke-linejoin:round; stroke-width:4; stroke-opacity:1; fill:none" points="
  717.405,1300.06 689.861,1252.35 634.773,1252.35 607.229,1300.06 634.773,1347.77 689.861,1347.77 717.405,1300.06 
  "/>
<circle clip-path="url(#clip862)" style="fill:#009af9; stroke:none; fill-opacity:1" cx="920.014" cy="262.317" r="2"/>
<circle clip-path="url(#clip862)" style="fill:#009af9; stroke:none; fill-opacity:1" cx="904.166" cy="569.359" r="2"/>
<circle clip-path="url(#clip862)" style="fill:#009af9; stroke:none; fill-opacity:1" cx="1262.25" cy="726.093" r="2"/>
<circle clip-path="url(#clip862)" style="fill:#009af9; stroke:none; fill-opacity:1" cx="1218.74" cy="1104.03" r="2"/>
<circle clip-path="url(#clip862)" style="fill:#009af9; stroke:none; fill-opacity:1" cx="1431.38" cy="1337.68" r="2"/>
<circle clip-path="url(#clip862)" style="fill:#009af9; stroke:none; fill-opacity:1" cx="959.878" cy="1318.51" r="2"/>
<circle clip-path="url(#clip862)" style="fill:#009af9; stroke:none; fill-opacity:1" cx="1737.68" cy="1328.6" r="2"/>
<circle clip-path="url(#clip862)" style="fill:#009af9; stroke:none; fill-opacity:1" cx="662.317" cy="1300.06" r="2"/>
<path clip-path="url(#clip860)" d="M905.743 255.98 L902.572 264.58 L908.926 264.58 L905.743 255.98 M904.424 253.677 L907.074 253.677 L913.66 270.957 L911.229 270.957 L909.655 266.524 L901.866 266.524 L900.292 270.957 L897.826 270.957 L904.424 253.677 Z" fill="#000000" fill-rule="evenodd" fill-opacity="1" /><path clip-path="url(#clip860)" d="M926.866 263.133 L926.866 270.957 L924.736 270.957 L924.736 263.203 Q924.736 261.362 924.018 260.448 Q923.301 259.534 921.866 259.534 Q920.141 259.534 919.146 260.633 Q918.15 261.733 918.15 263.631 L918.15 270.957 L916.009 270.957 L916.009 257.994 L918.15 257.994 L918.15 260.008 Q918.914 258.839 919.944 258.261 Q920.986 257.682 922.34 257.682 Q924.574 257.682 925.72 259.071 Q926.866 260.448 926.866 263.133 Z" fill="#000000" fill-rule="evenodd" fill-opacity="1" /><path clip-path="url(#clip860)" d="M936.507 272.161 Q935.604 274.476 934.748 275.182 Q933.891 275.888 932.456 275.888 L930.755 275.888 L930.755 274.105 L932.005 274.105 Q932.884 274.105 933.37 273.689 Q933.856 273.272 934.447 271.721 L934.829 270.749 L929.586 257.994 L931.843 257.994 L935.893 268.133 L939.944 257.994 L942.201 257.994 L936.507 272.161 Z" fill="#000000" fill-rule="evenodd" fill-opacity="1" /><path clip-path="url(#clip860)" d="M857.72 560.719 L860.868 560.719 L868.53 575.175 L868.53 560.719 L870.798 560.719 L870.798 577.999 L867.65 577.999 L859.988 563.543 L859.988 577.999 L857.72 577.999 L857.72 560.719 Z" fill="#000000" fill-rule="evenodd" fill-opacity="1" /><path clip-path="url(#clip860)" d="M875.139 572.884 L875.139 565.036 L877.268 565.036 L877.268 572.803 Q877.268 574.643 877.986 575.569 Q878.703 576.483 880.139 576.483 Q881.863 576.483 882.859 575.384 Q883.865 574.284 883.865 572.386 L883.865 565.036 L885.995 565.036 L885.995 577.999 L883.865 577.999 L883.865 576.009 Q883.09 577.189 882.06 577.768 Q881.041 578.335 879.687 578.335 Q877.453 578.335 876.296 576.946 Q875.139 575.557 875.139 572.884 M880.497 564.724 L880.497 564.724 Z" fill="#000000" fill-rule="evenodd" fill-opacity="1" /><path clip-path="url(#clip860)" d="M900.474 567.525 Q901.273 566.09 902.384 565.407 Q903.495 564.724 905 564.724 Q907.025 564.724 908.125 566.148 Q909.224 567.56 909.224 570.175 L909.224 577.999 L907.083 577.999 L907.083 570.245 Q907.083 568.381 906.423 567.479 Q905.763 566.576 904.409 566.576 Q902.754 566.576 901.794 567.675 Q900.833 568.775 900.833 570.673 L900.833 577.999 L898.692 577.999 L898.692 570.245 Q898.692 568.37 898.032 567.479 Q897.372 566.576 895.995 566.576 Q894.363 566.576 893.402 567.687 Q892.442 568.786 892.442 570.673 L892.442 577.999 L890.301 577.999 L890.301 565.036 L892.442 565.036 L892.442 567.05 Q893.171 565.858 894.189 565.291 Q895.208 564.724 896.608 564.724 Q898.02 564.724 899.004 565.442 Q900 566.159 900.474 567.525 Z" fill="#000000" fill-rule="evenodd" fill-opacity="1" /><path clip-path="url(#clip860)" d="M922.777 571.529 Q922.777 569.18 921.805 567.849 Q920.844 566.506 919.155 566.506 Q917.465 566.506 916.493 567.849 Q915.532 569.18 915.532 571.529 Q915.532 573.879 916.493 575.222 Q917.465 576.553 919.155 576.553 Q920.844 576.553 921.805 575.222 Q922.777 573.879 922.777 571.529 M915.532 567.004 Q916.203 565.847 917.222 565.291 Q918.252 564.724 919.675 564.724 Q922.037 564.724 923.506 566.599 Q924.988 568.474 924.988 571.529 Q924.988 574.585 923.506 576.46 Q922.037 578.335 919.675 578.335 Q918.252 578.335 917.222 577.779 Q916.203 577.212 915.532 576.055 L915.532 577.999 L913.391 577.999 L913.391 559.99 L915.532 559.99 L915.532 567.004 Z" fill="#000000" fill-rule="evenodd" fill-opacity="1" /><path clip-path="url(#clip860)" d="M939.606 570.986 L939.606 572.027 L929.814 572.027 Q929.953 574.226 931.134 575.384 Q932.326 576.529 934.444 576.529 Q935.671 576.529 936.817 576.229 Q937.974 575.928 939.108 575.326 L939.108 577.34 Q937.962 577.826 936.759 578.08 Q935.555 578.335 934.317 578.335 Q931.215 578.335 929.398 576.529 Q927.592 574.724 927.592 571.645 Q927.592 568.462 929.305 566.599 Q931.03 564.724 933.946 564.724 Q936.562 564.724 938.078 566.414 Q939.606 568.092 939.606 570.986 M937.476 570.361 Q937.453 568.613 936.492 567.571 Q935.543 566.53 933.969 566.53 Q932.187 566.53 931.111 567.536 Q930.046 568.543 929.884 570.372 L937.476 570.361 Z" fill="#000000" fill-rule="evenodd" fill-opacity="1" /><path clip-path="url(#clip860)" d="M950.613 567.027 Q950.254 566.819 949.826 566.726 Q949.409 566.622 948.9 566.622 Q947.094 566.622 946.122 567.803 Q945.161 568.972 945.161 571.171 L945.161 577.999 L943.02 577.999 L943.02 565.036 L945.161 565.036 L945.161 567.05 Q945.833 565.87 946.909 565.303 Q947.985 564.724 949.525 564.724 Q949.745 564.724 950.011 564.759 Q950.277 564.782 950.601 564.84 L950.613 567.027 Z" fill="#000000" fill-rule="evenodd" fill-opacity="1" /><path clip-path="url(#clip860)" d="M1247.17 726.631 Q1247.93 726.886 1248.63 727.719 Q1249.35 728.553 1250.07 730.011 L1252.44 734.733 L1249.93 734.733 L1247.72 730.3 Q1246.86 728.564 1246.05 727.997 Q1245.25 727.43 1243.86 727.43 L1241.32 727.43 L1241.32 734.733 L1238.98 734.733 L1238.98 717.453 L1244.26 717.453 Q1247.22 717.453 1248.68 718.692 Q1250.14 719.93 1250.14 722.43 Q1250.14 724.062 1249.37 725.138 Q1248.62 726.215 1247.17 726.631 M1241.32 719.375 L1241.32 725.509 L1244.26 725.509 Q1245.95 725.509 1246.8 724.733 Q1247.67 723.946 1247.67 722.43 Q1247.67 720.914 1246.8 720.15 Q1245.95 719.375 1244.26 719.375 L1241.32 719.375 Z" fill="#000000" fill-rule="evenodd" fill-opacity="1" /><path clip-path="url(#clip860)" d="M1265.38 727.719 L1265.38 728.761 L1255.59 728.761 Q1255.73 730.96 1256.91 732.118 Q1258.1 733.263 1260.22 733.263 Q1261.44 733.263 1262.59 732.962 Q1263.75 732.662 1264.88 732.06 L1264.88 734.074 Q1263.74 734.56 1262.53 734.814 Q1261.33 735.069 1260.09 735.069 Q1256.99 735.069 1255.17 733.263 Q1253.37 731.458 1253.37 728.379 Q1253.37 725.196 1255.08 723.333 Q1256.8 721.458 1259.72 721.458 Q1262.34 721.458 1263.85 723.148 Q1265.38 724.826 1265.38 727.719 M1263.25 727.094 Q1263.23 725.347 1262.27 724.305 Q1261.32 723.263 1259.74 723.263 Q1257.96 723.263 1256.88 724.27 Q1255.82 725.277 1255.66 727.106 L1263.25 727.094 Z" fill="#000000" fill-rule="evenodd" fill-opacity="1" /><path clip-path="url(#clip860)" d="M1274.77 728.217 Q1272.18 728.217 1271.19 728.807 Q1270.19 729.398 1270.19 730.821 Q1270.19 731.956 1270.93 732.627 Q1271.69 733.287 1272.97 733.287 Q1274.74 733.287 1275.81 732.037 Q1276.88 730.775 1276.88 728.692 L1276.88 728.217 L1274.77 728.217 M1279.01 727.338 L1279.01 734.733 L1276.88 734.733 L1276.88 732.766 Q1276.15 733.946 1275.07 734.513 Q1273.98 735.069 1272.4 735.069 Q1270.41 735.069 1269.23 733.958 Q1268.06 732.835 1268.06 730.96 Q1268.06 728.773 1269.52 727.662 Q1270.99 726.55 1273.9 726.55 L1276.88 726.55 L1276.88 726.342 Q1276.88 724.872 1275.91 724.074 Q1274.95 723.263 1273.2 723.263 Q1272.09 723.263 1271.04 723.53 Q1269.99 723.796 1269.01 724.328 L1269.01 722.361 Q1270.18 721.909 1271.28 721.689 Q1272.38 721.458 1273.42 721.458 Q1276.24 721.458 1277.62 722.916 Q1279.01 724.375 1279.01 727.338 Z" fill="#000000" fill-rule="evenodd" fill-opacity="1" /><path clip-path="url(#clip860)" d="M1283.4 716.724 L1285.53 716.724 L1285.53 734.733 L1283.4 734.733 L1283.4 716.724 Z" fill="#000000" fill-rule="evenodd" fill-opacity="1" /><path clip-path="url(#clip860)" d="M1148.01 1097.69 L1144.84 1106.29 L1151.2 1106.29 L1148.01 1097.69 M1146.69 1095.39 L1149.34 1095.39 L1155.93 1112.67 L1153.5 1112.67 L1151.92 1108.23 L1144.14 1108.23 L1142.56 1112.67 L1140.1 1112.67 L1146.69 1095.39 Z" fill="#000000" fill-rule="evenodd" fill-opacity="1" /><path clip-path="url(#clip860)" d="M1167.67 1106.2 Q1167.67 1103.85 1166.69 1102.52 Q1165.73 1101.17 1164.04 1101.17 Q1162.35 1101.17 1161.38 1102.52 Q1160.42 1103.85 1160.42 1106.2 Q1160.42 1108.55 1161.38 1109.89 Q1162.35 1111.22 1164.04 1111.22 Q1165.73 1111.22 1166.69 1109.89 Q1167.67 1108.55 1167.67 1106.2 M1160.42 1101.67 Q1161.09 1100.51 1162.11 1099.96 Q1163.14 1099.39 1164.56 1099.39 Q1166.92 1099.39 1168.39 1101.27 Q1169.88 1103.14 1169.88 1106.2 Q1169.88 1109.25 1168.39 1111.13 Q1166.92 1113 1164.56 1113 Q1163.14 1113 1162.11 1112.45 Q1161.09 1111.88 1160.42 1110.72 L1160.42 1112.67 L1158.28 1112.67 L1158.28 1094.66 L1160.42 1094.66 L1160.42 1101.67 Z" fill="#000000" fill-rule="evenodd" fill-opacity="1" /><path clip-path="url(#clip860)" d="M1181.67 1100.08 L1181.67 1102.1 Q1180.77 1101.64 1179.8 1101.4 Q1178.82 1101.17 1177.78 1101.17 Q1176.2 1101.17 1175.4 1101.66 Q1174.61 1102.14 1174.61 1103.12 Q1174.61 1103.86 1175.18 1104.29 Q1175.74 1104.7 1177.46 1105.08 L1178.19 1105.25 Q1180.45 1105.73 1181.4 1106.62 Q1182.36 1107.5 1182.36 1109.09 Q1182.36 1110.89 1180.93 1111.95 Q1179.51 1113 1177.01 1113 Q1175.96 1113 1174.83 1112.79 Q1173.71 1112.6 1172.46 1112.19 L1172.46 1109.99 Q1173.64 1110.61 1174.78 1110.92 Q1175.93 1111.22 1177.05 1111.22 Q1178.56 1111.22 1179.37 1110.71 Q1180.18 1110.19 1180.18 1109.25 Q1180.18 1108.38 1179.59 1107.92 Q1179.01 1107.46 1177.03 1107.03 L1176.29 1106.86 Q1174.31 1106.44 1173.43 1105.58 Q1172.55 1104.71 1172.55 1103.21 Q1172.55 1101.38 1173.85 1100.39 Q1175.14 1099.39 1177.53 1099.39 Q1178.71 1099.39 1179.75 1099.56 Q1180.79 1099.74 1181.67 1100.08 Z" fill="#000000" fill-rule="evenodd" fill-opacity="1" /><path clip-path="url(#clip860)" d="M1187.86 1096.02 L1187.86 1099.7 L1192.25 1099.7 L1192.25 1101.36 L1187.86 1101.36 L1187.86 1108.39 Q1187.86 1109.98 1188.29 1110.43 Q1188.73 1110.88 1190.06 1110.88 L1192.25 1110.88 L1192.25 1112.67 L1190.06 1112.67 Q1187.6 1112.67 1186.66 1111.75 Q1185.72 1110.83 1185.72 1108.39 L1185.72 1101.36 L1184.16 1101.36 L1184.16 1099.7 L1185.72 1099.7 L1185.72 1096.02 L1187.86 1096.02 Z" fill="#000000" fill-rule="evenodd" fill-opacity="1" /><path clip-path="url(#clip860)" d="M1202.56 1101.69 Q1202.2 1101.49 1201.77 1101.39 Q1201.36 1101.29 1200.85 1101.29 Q1199.04 1101.29 1198.07 1102.47 Q1197.11 1103.64 1197.11 1105.84 L1197.11 1112.67 L1194.97 1112.67 L1194.97 1099.7 L1197.11 1099.7 L1197.11 1101.72 Q1197.78 1100.54 1198.86 1099.97 Q1199.93 1099.39 1201.47 1099.39 Q1201.69 1099.39 1201.96 1099.42 Q1202.23 1099.45 1202.55 1099.51 L1202.56 1101.69 Z" fill="#000000" fill-rule="evenodd" fill-opacity="1" /><path clip-path="url(#clip860)" d="M1210.69 1106.15 Q1208.11 1106.15 1207.11 1106.74 Q1206.11 1107.33 1206.11 1108.75 Q1206.11 1109.89 1206.86 1110.56 Q1207.61 1111.22 1208.89 1111.22 Q1210.66 1111.22 1211.73 1109.97 Q1212.8 1108.71 1212.8 1106.62 L1212.8 1106.15 L1210.69 1106.15 M1214.93 1105.27 L1214.93 1112.67 L1212.8 1112.67 L1212.8 1110.7 Q1212.07 1111.88 1210.99 1112.45 Q1209.9 1113 1208.32 1113 Q1206.33 1113 1205.15 1111.89 Q1203.98 1110.77 1203.98 1108.89 Q1203.98 1106.7 1205.44 1105.59 Q1206.91 1104.48 1209.82 1104.48 L1212.8 1104.48 L1212.8 1104.27 Q1212.8 1102.8 1211.83 1102.01 Q1210.87 1101.2 1209.12 1101.2 Q1208.01 1101.2 1206.96 1101.46 Q1205.91 1101.73 1204.93 1102.26 L1204.93 1100.29 Q1206.1 1099.84 1207.2 1099.62 Q1208.3 1099.39 1209.34 1099.39 Q1212.16 1099.39 1213.54 1100.85 Q1214.93 1102.31 1214.93 1105.27 Z" fill="#000000" fill-rule="evenodd" fill-opacity="1" /><path clip-path="url(#clip860)" d="M1228.65 1100.2 L1228.65 1102.19 Q1227.75 1101.69 1226.83 1101.45 Q1225.93 1101.2 1225 1101.2 Q1222.93 1101.2 1221.79 1102.52 Q1220.64 1103.82 1220.64 1106.2 Q1220.64 1108.57 1221.79 1109.89 Q1222.93 1111.2 1225 1111.2 Q1225.93 1111.2 1226.83 1110.95 Q1227.75 1110.7 1228.65 1110.2 L1228.65 1112.17 Q1227.76 1112.58 1226.8 1112.79 Q1225.85 1113 1224.77 1113 Q1221.84 1113 1220.12 1111.16 Q1218.39 1109.32 1218.39 1106.2 Q1218.39 1103.02 1220.13 1101.21 Q1221.88 1099.39 1224.91 1099.39 Q1225.89 1099.39 1226.83 1099.6 Q1227.77 1099.8 1228.65 1100.2 Z" fill="#000000" fill-rule="evenodd" fill-opacity="1" /><path clip-path="url(#clip860)" d="M1234.46 1096.02 L1234.46 1099.7 L1238.85 1099.7 L1238.85 1101.36 L1234.46 1101.36 L1234.46 1108.39 Q1234.46 1109.98 1234.89 1110.43 Q1235.33 1110.88 1236.66 1110.88 L1238.85 1110.88 L1238.85 1112.67 L1236.66 1112.67 Q1234.19 1112.67 1233.26 1111.75 Q1232.32 1110.83 1232.32 1108.39 L1232.32 1101.36 L1230.76 1101.36 L1230.76 1099.7 L1232.32 1099.7 L1232.32 1096.02 L1234.46 1096.02 Z" fill="#000000" fill-rule="evenodd" fill-opacity="1" /><path clip-path="url(#clip860)" d="M1241.74 1095.39 L1251.67 1095.39 L1251.67 1097.35 L1244.08 1097.35 L1244.08 1102.45 L1250.93 1102.45 L1250.93 1104.41 L1244.08 1104.41 L1244.08 1112.67 L1241.74 1112.67 L1241.74 1095.39 Z" fill="#000000" fill-rule="evenodd" fill-opacity="1" /><path clip-path="url(#clip860)" d="M1255.28 1094.66 L1257.41 1094.66 L1257.41 1112.67 L1255.28 1112.67 L1255.28 1094.66 Z" fill="#000000" fill-rule="evenodd" fill-opacity="1" /><path clip-path="url(#clip860)" d="M1266.89 1101.2 Q1265.18 1101.2 1264.18 1102.54 Q1263.19 1103.87 1263.19 1106.2 Q1263.19 1108.52 1264.17 1109.86 Q1265.16 1111.2 1266.89 1111.2 Q1268.59 1111.2 1269.59 1109.85 Q1270.58 1108.51 1270.58 1106.2 Q1270.58 1103.89 1269.59 1102.55 Q1268.59 1101.2 1266.89 1101.2 M1266.89 1099.39 Q1269.67 1099.39 1271.25 1101.2 Q1272.84 1103 1272.84 1106.2 Q1272.84 1109.38 1271.25 1111.2 Q1269.67 1113 1266.89 1113 Q1264.1 1113 1262.51 1111.2 Q1260.94 1109.38 1260.94 1106.2 Q1260.94 1103 1262.51 1101.2 Q1264.1 1099.39 1266.89 1099.39 Z" fill="#000000" fill-rule="evenodd" fill-opacity="1" /><path clip-path="url(#clip860)" d="M1282.26 1106.15 Q1279.68 1106.15 1278.68 1106.74 Q1277.69 1107.33 1277.69 1108.75 Q1277.69 1109.89 1278.43 1110.56 Q1279.18 1111.22 1280.47 1111.22 Q1282.24 1111.22 1283.3 1109.97 Q1284.38 1108.71 1284.38 1106.62 L1284.38 1106.15 L1282.26 1106.15 M1286.51 1105.27 L1286.51 1112.67 L1284.38 1112.67 L1284.38 1110.7 Q1283.65 1111.88 1282.56 1112.45 Q1281.47 1113 1279.9 1113 Q1277.91 1113 1276.73 1111.89 Q1275.56 1110.77 1275.56 1108.89 Q1275.56 1106.7 1277.02 1105.59 Q1278.49 1104.48 1281.39 1104.48 L1284.38 1104.48 L1284.38 1104.27 Q1284.38 1102.8 1283.41 1102.01 Q1282.44 1101.2 1280.7 1101.2 Q1279.59 1101.2 1278.53 1101.46 Q1277.48 1101.73 1276.51 1102.26 L1276.51 1100.29 Q1277.68 1099.84 1278.78 1099.62 Q1279.88 1099.39 1280.92 1099.39 Q1283.73 1099.39 1285.12 1100.85 Q1286.51 1102.31 1286.51 1105.27 Z" fill="#000000" fill-rule="evenodd" fill-opacity="1" /><path clip-path="url(#clip860)" d="M1293 1096.02 L1293 1099.7 L1297.39 1099.7 L1297.39 1101.36 L1293 1101.36 L1293 1108.39 Q1293 1109.98 1293.43 1110.43 Q1293.87 1110.88 1295.2 1110.88 L1297.39 1110.88 L1297.39 1112.67 L1295.2 1112.67 Q1292.73 1112.67 1291.8 1111.75 Q1290.86 1110.83 1290.86 1108.39 L1290.86 1101.36 L1289.3 1101.36 L1289.3 1099.7 L1290.86 1099.7 L1290.86 1096.02 L1293 1096.02 Z" fill="#000000" fill-rule="evenodd" fill-opacity="1" /><path clip-path="url(#clip860)" d="M1386.95 1338.07 L1386.95 1344.4 L1390.7 1344.4 Q1392.59 1344.4 1393.49 1343.63 Q1394.4 1342.84 1394.4 1341.23 Q1394.4 1339.61 1393.49 1338.85 Q1392.59 1338.07 1390.7 1338.07 L1386.95 1338.07 M1386.95 1330.96 L1386.95 1336.17 L1390.41 1336.17 Q1392.12 1336.17 1392.96 1335.54 Q1393.8 1334.89 1393.8 1333.57 Q1393.8 1332.26 1392.96 1331.61 Q1392.12 1330.96 1390.41 1330.96 L1386.95 1330.96 M1384.61 1329.04 L1390.58 1329.04 Q1393.26 1329.04 1394.7 1330.15 Q1396.15 1331.26 1396.15 1333.31 Q1396.15 1334.9 1395.41 1335.84 Q1394.67 1336.77 1393.23 1337.01 Q1394.96 1337.38 1395.91 1338.56 Q1396.87 1339.73 1396.87 1341.48 Q1396.87 1343.8 1395.29 1345.06 Q1393.72 1346.32 1390.81 1346.32 L1384.61 1346.32 L1384.61 1329.04 Z" fill="#000000" fill-rule="evenodd" fill-opacity="1" /><path clip-path="url(#clip860)" d="M1400.78 1333.36 L1402.91 1333.36 L1402.91 1346.32 L1400.78 1346.32 L1400.78 1333.36 M1400.78 1328.31 L1402.91 1328.31 L1402.91 1331.01 L1400.78 1331.01 L1400.78 1328.31 Z" fill="#000000" fill-rule="evenodd" fill-opacity="1" /><path clip-path="url(#clip860)" d="M1415.9 1339.69 Q1415.9 1337.38 1414.93 1336.1 Q1413.99 1334.83 1412.26 1334.83 Q1410.55 1334.83 1409.59 1336.1 Q1408.64 1337.38 1408.64 1339.69 Q1408.64 1341.99 1409.59 1343.27 Q1410.55 1344.54 1412.26 1344.54 Q1413.99 1344.54 1414.93 1343.27 Q1415.9 1341.99 1415.9 1339.69 M1418.03 1344.71 Q1418.03 1348.02 1416.56 1349.63 Q1415.09 1351.25 1412.05 1351.25 Q1410.93 1351.25 1409.93 1351.08 Q1408.94 1350.92 1408 1350.57 L1408 1348.5 Q1408.94 1349.01 1409.85 1349.25 Q1410.77 1349.49 1411.72 1349.49 Q1413.81 1349.49 1414.85 1348.39 Q1415.9 1347.31 1415.9 1345.1 L1415.9 1344.04 Q1415.24 1345.19 1414.21 1345.76 Q1413.18 1346.32 1411.74 1346.32 Q1409.36 1346.32 1407.9 1344.51 Q1406.44 1342.69 1406.44 1339.69 Q1406.44 1336.68 1407.9 1334.86 Q1409.36 1333.05 1411.74 1333.05 Q1413.18 1333.05 1414.21 1333.61 Q1415.24 1334.18 1415.9 1335.33 L1415.9 1333.36 L1418.03 1333.36 L1418.03 1344.71 Z" fill="#000000" fill-rule="evenodd" fill-opacity="1" /><path clip-path="url(#clip860)" d="M1422.5 1329.04 L1432.43 1329.04 L1432.43 1331.01 L1424.84 1331.01 L1424.84 1336.1 L1431.69 1336.1 L1431.69 1338.07 L1424.84 1338.07 L1424.84 1346.32 L1422.5 1346.32 L1422.5 1329.04 Z" fill="#000000" fill-rule="evenodd" fill-opacity="1" /><path clip-path="url(#clip860)" d="M1436.05 1328.31 L1438.18 1328.31 L1438.18 1346.32 L1436.05 1346.32 L1436.05 1328.31 Z" fill="#000000" fill-rule="evenodd" fill-opacity="1" /><path clip-path="url(#clip860)" d="M1447.65 1334.85 Q1445.94 1334.85 1444.95 1336.2 Q1443.95 1337.53 1443.95 1339.85 Q1443.95 1342.18 1444.93 1343.52 Q1445.93 1344.85 1447.65 1344.85 Q1449.36 1344.85 1450.35 1343.51 Q1451.35 1342.17 1451.35 1339.85 Q1451.35 1337.55 1450.35 1336.21 Q1449.36 1334.85 1447.65 1334.85 M1447.65 1333.05 Q1450.43 1333.05 1452.02 1334.85 Q1453.6 1336.66 1453.6 1339.85 Q1453.6 1343.04 1452.02 1344.85 Q1450.43 1346.66 1447.65 1346.66 Q1444.87 1346.66 1443.28 1344.85 Q1441.71 1343.04 1441.71 1339.85 Q1441.71 1336.66 1443.28 1334.85 Q1444.87 1333.05 1447.65 1333.05 Z" fill="#000000" fill-rule="evenodd" fill-opacity="1" /><path clip-path="url(#clip860)" d="M1463.02 1339.81 Q1460.44 1339.81 1459.45 1340.4 Q1458.45 1340.99 1458.45 1342.41 Q1458.45 1343.55 1459.19 1344.22 Q1459.95 1344.88 1461.23 1344.88 Q1463 1344.88 1464.07 1343.63 Q1465.14 1342.36 1465.14 1340.28 L1465.14 1339.81 L1463.02 1339.81 M1467.27 1338.93 L1467.27 1346.32 L1465.14 1346.32 L1465.14 1344.36 Q1464.41 1345.54 1463.33 1346.1 Q1462.24 1346.66 1460.66 1346.66 Q1458.67 1346.66 1457.49 1345.55 Q1456.32 1344.42 1456.32 1342.55 Q1456.32 1340.36 1457.78 1339.25 Q1459.25 1338.14 1462.16 1338.14 L1465.14 1338.14 L1465.14 1337.93 Q1465.14 1336.46 1464.17 1335.66 Q1463.21 1334.85 1461.46 1334.85 Q1460.35 1334.85 1459.3 1335.12 Q1458.24 1335.39 1457.27 1335.92 L1457.27 1333.95 Q1458.44 1333.5 1459.54 1333.28 Q1460.64 1333.05 1461.68 1333.05 Q1464.49 1333.05 1465.88 1334.51 Q1467.27 1335.96 1467.27 1338.93 Z" fill="#000000" fill-rule="evenodd" fill-opacity="1" /><path clip-path="url(#clip860)" d="M1473.77 1329.68 L1473.77 1333.36 L1478.15 1333.36 L1478.15 1335.01 L1473.77 1335.01 L1473.77 1342.05 Q1473.77 1343.64 1474.19 1344.09 Q1474.63 1344.54 1475.96 1344.54 L1478.15 1344.54 L1478.15 1346.32 L1475.96 1346.32 Q1473.5 1346.32 1472.56 1345.41 Q1471.62 1344.48 1471.62 1342.05 L1471.62 1335.01 L1470.06 1335.01 L1470.06 1333.36 L1471.62 1333.36 L1471.62 1329.68 L1473.77 1329.68 Z" fill="#000000" fill-rule="evenodd" fill-opacity="1" /><path clip-path="url(#clip860)" d="M917.436 1309.87 L927.366 1309.87 L927.366 1311.83 L919.774 1311.83 L919.774 1316.93 L926.626 1316.93 L926.626 1318.89 L919.774 1318.89 L919.774 1327.15 L917.436 1327.15 L917.436 1309.87 Z" fill="#000000" fill-rule="evenodd" fill-opacity="1" /><path clip-path="url(#clip860)" d="M930.977 1309.14 L933.107 1309.14 L933.107 1327.15 L930.977 1327.15 L930.977 1309.14 Z" fill="#000000" fill-rule="evenodd" fill-opacity="1" /><path clip-path="url(#clip860)" d="M942.586 1315.68 Q940.873 1315.68 939.878 1317.02 Q938.882 1318.35 938.882 1320.68 Q938.882 1323 939.866 1324.35 Q940.862 1325.68 942.586 1325.68 Q944.287 1325.68 945.283 1324.33 Q946.278 1322.99 946.278 1320.68 Q946.278 1318.37 945.283 1317.03 Q944.287 1315.68 942.586 1315.68 M942.586 1313.87 Q945.364 1313.87 946.95 1315.68 Q948.535 1317.48 948.535 1320.68 Q948.535 1323.86 946.95 1325.68 Q945.364 1327.48 942.586 1327.48 Q939.797 1327.48 938.211 1325.68 Q936.637 1323.86 936.637 1320.68 Q936.637 1317.48 938.211 1315.68 Q939.797 1313.87 942.586 1313.87 Z" fill="#000000" fill-rule="evenodd" fill-opacity="1" /><path clip-path="url(#clip860)" d="M957.956 1320.63 Q955.375 1320.63 954.38 1321.22 Q953.385 1321.81 953.385 1323.23 Q953.385 1324.37 954.125 1325.04 Q954.878 1325.7 956.162 1325.7 Q957.933 1325.7 958.998 1324.45 Q960.074 1323.19 960.074 1321.1 L960.074 1320.63 L957.956 1320.63 M962.204 1319.75 L962.204 1327.15 L960.074 1327.15 L960.074 1325.18 Q959.345 1326.36 958.257 1326.93 Q957.169 1327.48 955.595 1327.48 Q953.605 1327.48 952.424 1326.37 Q951.255 1325.25 951.255 1323.37 Q951.255 1321.19 952.713 1320.07 Q954.183 1318.96 957.088 1318.96 L960.074 1318.96 L960.074 1318.76 Q960.074 1317.29 959.102 1316.49 Q958.142 1315.68 956.394 1315.68 Q955.283 1315.68 954.23 1315.94 Q953.176 1316.21 952.204 1316.74 L952.204 1314.77 Q953.373 1314.32 954.473 1314.1 Q955.572 1313.87 956.614 1313.87 Q959.426 1313.87 960.815 1315.33 Q962.204 1316.79 962.204 1319.75 Z" fill="#000000" fill-rule="evenodd" fill-opacity="1" /><path clip-path="url(#clip860)" d="M968.697 1310.5 L968.697 1314.18 L973.084 1314.18 L973.084 1315.84 L968.697 1315.84 L968.697 1322.88 Q968.697 1324.46 969.125 1324.91 Q969.565 1325.36 970.896 1325.36 L973.084 1325.36 L973.084 1327.15 L970.896 1327.15 Q968.431 1327.15 967.493 1326.23 Q966.556 1325.31 966.556 1322.88 L966.556 1315.84 L964.993 1315.84 L964.993 1314.18 L966.556 1314.18 L966.556 1310.5 L968.697 1310.5 Z" fill="#000000" fill-rule="evenodd" fill-opacity="1" /><path clip-path="url(#clip860)" d="M976.591 1325.18 L980.41 1325.18 L980.41 1312 L976.255 1312.83 L976.255 1310.7 L980.387 1309.87 L982.725 1309.87 L982.725 1325.18 L986.544 1325.18 L986.544 1327.15 L976.591 1327.15 L976.591 1325.18 Z" fill="#000000" fill-rule="evenodd" fill-opacity="1" /><path clip-path="url(#clip860)" d="M996.556 1317.57 Q994.982 1317.57 994.056 1318.65 Q993.141 1319.73 993.141 1321.6 Q993.141 1323.47 994.056 1324.55 Q994.982 1325.63 996.556 1325.63 Q998.13 1325.63 999.044 1324.55 Q999.97 1323.47 999.97 1321.6 Q999.97 1319.73 999.044 1318.65 Q998.13 1317.57 996.556 1317.57 M1001.2 1310.25 L1001.2 1312.38 Q1000.32 1311.96 999.415 1311.74 Q998.523 1311.52 997.644 1311.52 Q995.329 1311.52 994.102 1313.08 Q992.887 1314.65 992.713 1317.81 Q993.396 1316.8 994.426 1316.27 Q995.456 1315.72 996.695 1315.72 Q999.299 1315.72 1000.8 1317.31 Q1002.32 1318.88 1002.32 1321.6 Q1002.32 1324.26 1000.75 1325.87 Q999.171 1327.48 996.556 1327.48 Q993.558 1327.48 991.972 1325.19 Q990.387 1322.89 990.387 1318.52 Q990.387 1314.43 992.331 1312 Q994.276 1309.55 997.551 1309.55 Q998.431 1309.55 999.322 1309.73 Q1000.22 1309.9 1001.2 1310.25 Z" fill="#000000" fill-rule="evenodd" fill-opacity="1" /><path clip-path="url(#clip860)" d="M1695.68 1319.96 L1705.61 1319.96 L1705.61 1321.93 L1698.02 1321.93 L1698.02 1327.02 L1704.87 1327.02 L1704.87 1328.99 L1698.02 1328.99 L1698.02 1337.24 L1695.68 1337.24 L1695.68 1319.96 Z" fill="#000000" fill-rule="evenodd" fill-opacity="1" /><path clip-path="url(#clip860)" d="M1709.22 1319.23 L1711.35 1319.23 L1711.35 1337.24 L1709.22 1337.24 L1709.22 1319.23 Z" fill="#000000" fill-rule="evenodd" fill-opacity="1" /><path clip-path="url(#clip860)" d="M1720.83 1325.77 Q1719.12 1325.77 1718.12 1327.11 Q1717.13 1328.44 1717.13 1330.77 Q1717.13 1333.1 1718.11 1334.44 Q1719.11 1335.77 1720.83 1335.77 Q1722.53 1335.77 1723.53 1334.43 Q1724.52 1333.08 1724.52 1330.77 Q1724.52 1328.47 1723.53 1327.12 Q1722.53 1325.77 1720.83 1325.77 M1720.83 1323.96 Q1723.61 1323.96 1725.19 1325.77 Q1726.78 1327.57 1726.78 1330.77 Q1726.78 1333.95 1725.19 1335.77 Q1723.61 1337.57 1720.83 1337.57 Q1718.04 1337.57 1716.46 1335.77 Q1714.88 1333.95 1714.88 1330.77 Q1714.88 1327.57 1716.46 1325.77 Q1718.04 1323.96 1720.83 1323.96 Z" fill="#000000" fill-rule="evenodd" fill-opacity="1" /><path clip-path="url(#clip860)" d="M1736.2 1330.72 Q1733.62 1330.72 1732.62 1331.31 Q1731.63 1331.9 1731.63 1333.33 Q1731.63 1334.46 1732.37 1335.13 Q1733.12 1335.79 1734.41 1335.79 Q1736.18 1335.79 1737.24 1334.54 Q1738.32 1333.28 1738.32 1331.2 L1738.32 1330.72 L1736.2 1330.72 M1740.45 1329.84 L1740.45 1337.24 L1738.32 1337.24 L1738.32 1335.27 Q1737.59 1336.45 1736.5 1337.02 Q1735.41 1337.57 1733.84 1337.57 Q1731.85 1337.57 1730.67 1336.46 Q1729.5 1335.34 1729.5 1333.47 Q1729.5 1331.28 1730.96 1330.17 Q1732.43 1329.06 1735.33 1329.06 L1738.32 1329.06 L1738.32 1328.85 Q1738.32 1327.38 1737.35 1326.58 Q1736.39 1325.77 1734.64 1325.77 Q1733.53 1325.77 1732.47 1326.04 Q1731.42 1326.3 1730.45 1326.83 L1730.45 1324.87 Q1731.62 1324.42 1732.72 1324.2 Q1733.82 1323.96 1734.86 1323.96 Q1737.67 1323.96 1739.06 1325.42 Q1740.45 1326.88 1740.45 1329.84 Z" fill="#000000" fill-rule="evenodd" fill-opacity="1" /><path clip-path="url(#clip860)" d="M1746.94 1320.6 L1746.94 1324.28 L1751.33 1324.28 L1751.33 1325.93 L1746.94 1325.93 L1746.94 1332.97 Q1746.94 1334.55 1747.37 1335.01 Q1747.81 1335.46 1749.14 1335.46 L1751.33 1335.46 L1751.33 1337.24 L1749.14 1337.24 Q1746.68 1337.24 1745.74 1336.32 Q1744.8 1335.4 1744.8 1332.97 L1744.8 1325.93 L1743.24 1325.93 L1743.24 1324.28 L1744.8 1324.28 L1744.8 1320.6 L1746.94 1320.6 Z" fill="#000000" fill-rule="evenodd" fill-opacity="1" /><path clip-path="url(#clip860)" d="M1761.51 1327.92 Q1763.19 1328.28 1764.13 1329.42 Q1765.08 1330.55 1765.08 1332.22 Q1765.08 1334.77 1763.32 1336.17 Q1761.56 1337.57 1758.32 1337.57 Q1757.23 1337.57 1756.07 1337.35 Q1754.93 1337.15 1753.7 1336.72 L1753.7 1334.46 Q1754.67 1335.03 1755.83 1335.32 Q1756.99 1335.61 1758.25 1335.61 Q1760.45 1335.61 1761.59 1334.74 Q1762.75 1333.87 1762.75 1332.22 Q1762.75 1330.69 1761.68 1329.83 Q1760.61 1328.96 1758.7 1328.96 L1756.69 1328.96 L1756.69 1327.04 L1758.79 1327.04 Q1760.52 1327.04 1761.43 1326.36 Q1762.35 1325.67 1762.35 1324.37 Q1762.35 1323.04 1761.4 1322.33 Q1760.46 1321.61 1758.7 1321.61 Q1757.74 1321.61 1756.64 1321.82 Q1755.54 1322.03 1754.22 1322.47 L1754.22 1320.39 Q1755.55 1320.02 1756.71 1319.83 Q1757.88 1319.65 1758.91 1319.65 Q1761.57 1319.65 1763.12 1320.86 Q1764.67 1322.07 1764.67 1324.13 Q1764.67 1325.56 1763.85 1326.56 Q1763.03 1327.54 1761.51 1327.92 Z" fill="#000000" fill-rule="evenodd" fill-opacity="1" /><path clip-path="url(#clip860)" d="M1771.53 1335.27 L1779.68 1335.27 L1779.68 1337.24 L1768.71 1337.24 L1768.71 1335.27 Q1770.04 1333.89 1772.34 1331.58 Q1774.64 1329.25 1775.23 1328.58 Q1776.35 1327.32 1776.79 1326.45 Q1777.24 1325.57 1777.24 1324.73 Q1777.24 1323.35 1776.27 1322.48 Q1775.31 1321.61 1773.76 1321.61 Q1772.66 1321.61 1771.43 1322 Q1770.22 1322.38 1768.83 1323.15 L1768.83 1320.79 Q1770.24 1320.23 1771.47 1319.94 Q1772.69 1319.65 1773.71 1319.65 Q1776.4 1319.65 1778 1320.99 Q1779.59 1322.33 1779.59 1324.58 Q1779.59 1325.64 1779.19 1326.6 Q1778.79 1327.55 1777.74 1328.85 Q1777.45 1329.18 1775.9 1330.79 Q1774.35 1332.39 1771.53 1335.27 Z" fill="#000000" fill-rule="evenodd" fill-opacity="1" /><path clip-path="url(#clip860)" d="M619.794 1291.42 L629.725 1291.42 L629.725 1293.39 L622.132 1293.39 L622.132 1298.48 L628.984 1298.48 L628.984 1300.45 L622.132 1300.45 L622.132 1308.7 L619.794 1308.7 L619.794 1291.42 Z" fill="#000000" fill-rule="evenodd" fill-opacity="1" /><path clip-path="url(#clip860)" d="M633.336 1290.69 L635.466 1290.69 L635.466 1308.7 L633.336 1308.7 L633.336 1290.69 Z" fill="#000000" fill-rule="evenodd" fill-opacity="1" /><path clip-path="url(#clip860)" d="M644.945 1297.23 Q643.232 1297.23 642.236 1298.57 Q641.241 1299.9 641.241 1302.23 Q641.241 1304.56 642.225 1305.9 Q643.22 1307.23 644.945 1307.23 Q646.646 1307.23 647.641 1305.89 Q648.637 1304.54 648.637 1302.23 Q648.637 1299.93 647.641 1298.58 Q646.646 1297.23 644.945 1297.23 M644.945 1295.42 Q647.722 1295.42 649.308 1297.23 Q650.894 1299.03 650.894 1302.23 Q650.894 1305.41 649.308 1307.23 Q647.722 1309.03 644.945 1309.03 Q642.155 1309.03 640.57 1307.23 Q638.996 1305.41 638.996 1302.23 Q638.996 1299.03 640.57 1297.23 Q642.155 1295.42 644.945 1295.42 Z" fill="#000000" fill-rule="evenodd" fill-opacity="1" /><path clip-path="url(#clip860)" d="M660.315 1302.18 Q657.734 1302.18 656.739 1302.77 Q655.743 1303.36 655.743 1304.79 Q655.743 1305.92 656.484 1306.59 Q657.236 1307.25 658.521 1307.25 Q660.292 1307.25 661.357 1306 Q662.433 1304.74 662.433 1302.66 L662.433 1302.18 L660.315 1302.18 M664.563 1301.3 L664.563 1308.7 L662.433 1308.7 L662.433 1306.73 Q661.704 1307.91 660.616 1308.48 Q659.528 1309.03 657.954 1309.03 Q655.963 1309.03 654.783 1307.92 Q653.614 1306.8 653.614 1304.93 Q653.614 1302.74 655.072 1301.63 Q656.542 1300.52 659.447 1300.52 L662.433 1300.52 L662.433 1300.31 Q662.433 1298.84 661.461 1298.04 Q660.5 1297.23 658.752 1297.23 Q657.641 1297.23 656.588 1297.49 Q655.535 1297.76 654.563 1298.29 L654.563 1296.33 Q655.732 1295.87 656.831 1295.65 Q657.931 1295.42 658.972 1295.42 Q661.785 1295.42 663.174 1296.88 Q664.563 1298.34 664.563 1301.3 Z" fill="#000000" fill-rule="evenodd" fill-opacity="1" /><path clip-path="url(#clip860)" d="M671.056 1292.06 L671.056 1295.74 L675.442 1295.74 L675.442 1297.39 L671.056 1297.39 L671.056 1304.43 Q671.056 1306.01 671.484 1306.46 Q671.924 1306.92 673.255 1306.92 L675.442 1306.92 L675.442 1308.7 L673.255 1308.7 Q670.789 1308.7 669.852 1307.78 Q668.914 1306.86 668.914 1304.43 L668.914 1297.39 L667.352 1297.39 L667.352 1295.74 L668.914 1295.74 L668.914 1292.06 L671.056 1292.06 Z" fill="#000000" fill-rule="evenodd" fill-opacity="1" /><path clip-path="url(#clip860)" d="M683.833 1299.13 Q682.259 1299.13 681.333 1300.2 Q680.419 1301.28 680.419 1303.15 Q680.419 1305.02 681.333 1306.11 Q682.259 1307.18 683.833 1307.18 Q685.407 1307.18 686.322 1306.11 Q687.248 1305.02 687.248 1303.15 Q687.248 1301.28 686.322 1300.2 Q685.407 1299.13 683.833 1299.13 M688.474 1291.8 L688.474 1293.93 Q687.595 1293.51 686.692 1293.29 Q685.801 1293.07 684.921 1293.07 Q682.606 1293.07 681.38 1294.64 Q680.164 1296.2 679.991 1299.36 Q680.674 1298.35 681.704 1297.82 Q682.734 1297.27 683.972 1297.27 Q686.576 1297.27 688.081 1298.86 Q689.597 1300.43 689.597 1303.15 Q689.597 1305.82 688.023 1307.43 Q686.449 1309.03 683.833 1309.03 Q680.836 1309.03 679.25 1306.74 Q677.664 1304.44 677.664 1300.08 Q677.664 1295.98 679.609 1293.55 Q681.553 1291.11 684.829 1291.11 Q685.708 1291.11 686.599 1291.28 Q687.502 1291.45 688.474 1291.8 Z" fill="#000000" fill-rule="evenodd" fill-opacity="1" /><path clip-path="url(#clip860)" d="M700.048 1293.46 L694.146 1302.68 L700.048 1302.68 L700.048 1293.46 M699.435 1291.42 L702.375 1291.42 L702.375 1302.68 L704.84 1302.68 L704.84 1304.62 L702.375 1304.62 L702.375 1308.7 L700.048 1308.7 L700.048 1304.62 L692.248 1304.62 L692.248 1302.37 L699.435 1291.42 Z" fill="#000000" fill-rule="evenodd" fill-opacity="1" /></svg>
